<?xml version="1.0" encoding="UTF-8"?>
<svg width="100" height="100" viewBox="0 0 100 100" xmlns="http://www.w3.org/2000/svg">
  <defs>
    <linearGradient id="rainDrop" x1="0%" y1="0%" x2="0%" y2="100%">
      <stop offset="0%" style="stop-color:rgba(255,255,255,0.1)" />
      <stop offset="100%" style="stop-color:rgba(255,255,255,0.5)" />
    </linearGradient>
  </defs>
  
  <!-- Rain drops -->
  <g opacity="0.6">
    <line x1="10" y1="0" x2="8" y2="20" stroke="url(#rainDrop)" stroke-width="1" />
    <line x1="30" y1="10" x2="28" y2="30" stroke="url(#rainDrop)" stroke-width="1" />
    <line x1="50" y1="5" x2="48" y2="25" stroke="url(#rainDrop)" stroke-width="1" />
    <line x1="70" y1="15" x2="68" y2="35" stroke="url(#rainDrop)" stroke-width="1" />
    <line x1="90" y1="0" x2="88" y2="20" stroke="url(#rainDrop)" stroke-width="1" />
    
    <line x1="20" y1="40" x2="18" y2="60" stroke="url(#rainDrop)" stroke-width="1" />
    <line x1="40" y1="50" x2="38" y2="70" stroke="url(#rainDrop)" stroke-width="1" />
    <line x1="60" y1="45" x2="58" y2="65" stroke="url(#rainDrop)" stroke-width="1" />
    <line x1="80" y1="55" x2="78" y2="75" stroke="url(#rainDrop)" stroke-width="1" />
    
    <line x1="10" y1="80" x2="8" y2="100" stroke="url(#rainDrop)" stroke-width="1" />
    <line x1="30" y1="70" x2="28" y2="90" stroke="url(#rainDrop)" stroke-width="1" />
    <line x1="50" y1="85" x2="48" y2="105" stroke="url(#rainDrop)" stroke-width="1" />
    <line x1="70" y1="75" x2="68" y2="95" stroke="url(#rainDrop)" stroke-width="1" />
    <line x1="90" y1="90" x2="88" y2="110" stroke="url(#rainDrop)" stroke-width="1" />
  </g>
</svg> 