<?xml version="1.0" encoding="UTF-8"?>
<svg width="100" height="100" viewBox="0 0 100 100" xmlns="http://www.w3.org/2000/svg">
  <defs>
    <radialGradient id="snowflake" cx="50%" cy="50%" r="50%" fx="50%" fy="50%">
      <stop offset="0%" style="stop-color:rgba(255,255,255,0.8)" />
      <stop offset="100%" style="stop-color:rgba(255,255,255,0)" />
    </radialGradient>
  </defs>
  
  <!-- Snowflakes -->
  <g opacity="0.6">
    <circle cx="10" cy="10" r="2" fill="url(#snowflake)" />
    <circle cx="30" cy="20" r="1.5" fill="url(#snowflake)" />
    <circle cx="50" cy="15" r="2" fill="url(#snowflake)" />
    <circle cx="70" cy="25" r="1.5" fill="url(#snowflake)" />
    <circle cx="90" cy="10" r="2" fill="url(#snowflake)" />
    
    <circle cx="20" cy="40" r="2" fill="url(#snowflake)" />
    <circle cx="40" cy="50" r="1.5" fill="url(#snowflake)" />
    <circle cx="60" cy="45" r="2" fill="url(#snowflake)" />
    <circle cx="80" cy="55" r="1.5" fill="url(#snowflake)" />
    
    <circle cx="10" cy="70" r="2" fill="url(#snowflake)" />
    <circle cx="30" cy="80" r="1.5" fill="url(#snowflake)" />
    <circle cx="50" cy="75" r="2" fill="url(#snowflake)" />
    <circle cx="70" cy="85" r="1.5" fill="url(#snowflake)" />
    <circle cx="90" cy="70" r="2" fill="url(#snowflake)" />
    
    <!-- Additional smaller snowflakes -->
    <circle cx="15" cy="30" r="1" fill="url(#snowflake)" />
    <circle cx="35" cy="35" r="1" fill="url(#snowflake)" />
    <circle cx="55" cy="60" r="1" fill="url(#snowflake)" />
    <circle cx="75" cy="40" r="1" fill="url(#snowflake)" />
    <circle cx="85" cy="90" r="1" fill="url(#snowflake)" />
    <circle cx="25" cy="95" r="1" fill="url(#snowflake)" />
    <circle cx="45" cy="5" r="1" fill="url(#snowflake)" />
    <circle cx="65" cy="65" r="1" fill="url(#snowflake)" />
  </g>
</svg> 